0
SECTION
2
HEADER
9
$ANGDIR
70
1
9
$AUNITS
70
0
9
$PROJECTNAME
1
CV_LEDControl
9
$TDCREATE
40
2458837.55562488
9
$INSUNITS
70
4
0
ENDSEC
0
SECTION
2
ENTITIES
0
POLYLINE
66
1
8
outline
10
0.0
20
0.0
30
0.0
70
1
0
VERTEX
8
0
10
0
20
2.54
30
0
0
VERTEX
8
0
10
2.54
20
0
30
0
0
VERTEX
8
0
10
45.72
20
0
30
0
0
VERTEX
8
0
10
48.24
20
2.52
30
0
0
VERTEX
8
0
10
48.24
20
22.880000000000003
30
0
0
VERTEX
8
0
10
45.701
20
25.419
30
0
0
VERTEX
8
0
10
2.559
20
25.419
30
0
0
VERTEX
8
0
10
0
20
22.86
30
0
0
VERTEX
8
0
10
0
20
2.54
30
0
0
SEQEND
0
POLYLINE
66
1
8
holes
10
0.0
20
0.0
30
0.0
70
1
0
VERTEX
8
0
10
5.3100000000000005
20
3.7564281250000002
30
0
0
VERTEX
8
0
10
5.30235625
20
3.6495562500000003
30
0
0
VERTEX
8
0
10
5.287109375
20
3.5435000000000003
30
0
0
VERTEX
8
0
10
5.264331250000001
20
3.438803125
30
0
0
VERTEX
8
0
10
5.234146875
20
3.3360000000000003
30
0
0
VERTEX
8
0
10
5.196703125
20
3.235609375
30
0
0
VERTEX
8
0
10
5.15219375
20
3.1381468750000003
30
0
0
VERTEX
8
0
10
5.10084375
20
3.04410625
30
0
0
VERTEX
8
0
10
5.042915625
20
2.953971875
30
0
0
VERTEX
8
0
10
4.97870625
20
2.868196875
30
0
0
VERTEX
8
0
10
4.9085406250000005
20
2.787221875
30
0
0
VERTEX
8
0
10
4.832778125
20
2.711459375
30
0
0
VERTEX
8
0
10
4.751803125
20
2.64129375
30
0
0
VERTEX
8
0
10
4.666028125
20
2.577084375
30
0
0
VERTEX
8
0
10
4.5758937500000005
20
2.51915625
30
0
0
VERTEX
8
0
10
4.481853125
20
2.46780625
30
0
0
VERTEX
8
0
10
4.384390625
20
2.423296875
30
0
0
VERTEX
8
0
10
4.284
20
2.385853125
30
0
0
VERTEX
8
0
10
4.181196875
20
2.35566875
30
0
0
VERTEX
8
0
10
4.0765
20
2.332890625
30
0
0
VERTEX
8
0
10
3.9704437500000003
20
2.3176437500000002
30
0
0
VERTEX
8
0
10
3.8635718750000003
20
2.31
30
0
0
VERTEX
8
0
10
3.7564281250000002
20
2.31
30
0
0
VERTEX
8
0
10
3.6495562500000003
20
2.3176437500000002
30
0
0
VERTEX
8
0
10
3.5435000000000003
20
2.332890625
30
0
0
VERTEX
8
0
10
3.438803125
20
2.35566875
30
0
0
VERTEX
8
0
10
3.3360000000000003
20
2.385853125
30
0
0
VERTEX
8
0
10
3.235609375
20
2.423296875
30
0
0
VERTEX
8
0
10
3.1381468750000003
20
2.46780625
30
0
0
VERTEX
8
0
10
3.04410625
20
2.51915625
30
0
0
VERTEX
8
0
10
2.953971875
20
2.577084375
30
0
0
VERTEX
8
0
10
2.868196875
20
2.64129375
30
0
0
VERTEX
8
0
10
2.787221875
20
2.711459375
30
0
0
VERTEX
8
0
10
2.711459375
20
2.787221875
30
0
0
VERTEX
8
0
10
2.64129375
20
2.868196875
30
0
0
VERTEX
8
0
10
2.577084375
20
2.953971875
30
0
0
VERTEX
8
0
10
2.51915625
20
3.04410625
30
0
0
VERTEX
8
0
10
2.46780625
20
3.1381468750000003
30
0
0
VERTEX
8
0
10
2.423296875
20
3.235609375
30
0
0
VERTEX
8
0
10
2.385853125
20
3.3360000000000003
30
0
0
VERTEX
8
0
10
2.35566875
20
3.438803125
30
0
0
VERTEX
8
0
10
2.332890625
20
3.5435000000000003
30
0
0
VERTEX
8
0
10
2.3176437500000002
20
3.6495562500000003
30
0
0
VERTEX
8
0
10
2.31
20
3.7564281250000002
30
0
0
VERTEX
8
0
10
2.31
20
3.8635718750000003
30
0
0
VERTEX
8
0
10
2.3176437500000002
20
3.9704437500000003
30
0
0
VERTEX
8
0
10
2.332890625
20
4.0765
30
0
0
VERTEX
8
0
10
2.35566875
20
4.181196875
30
0
0
VERTEX
8
0
10
2.385853125
20
4.284
30
0
0
VERTEX
8
0
10
2.423296875
20
4.384390625
30
0
0
VERTEX
8
0
10
2.46780625
20
4.481853125
30
0
0
VERTEX
8
0
10
2.51915625
20
4.5758937500000005
30
0
0
VERTEX
8
0
10
2.577084375
20
4.666028125
30
0
0
VERTEX
8
0
10
2.64129375
20
4.751803125
30
0
0
VERTEX
8
0
10
2.711459375
20
4.832778125
30
0
0
VERTEX
8
0
10
2.787221875
20
4.9085406250000005
30
0
0
VERTEX
8
0
10
2.868196875
20
4.97870625
30
0
0
VERTEX
8
0
10
2.953971875
20
5.042915625
30
0
0
VERTEX
8
0
10
3.04410625
20
5.10084375
30
0
0
VERTEX
8
0
10
3.1381468750000003
20
5.15219375
30
0
0
VERTEX
8
0
10
3.235609375
20
5.196703125
30
0
0
VERTEX
8
0
10
3.3360000000000003
20
5.234146875
30
0
0
VERTEX
8
0
10
3.438803125
20
5.264331250000001
30
0
0
VERTEX
8
0
10
3.5435000000000003
20
5.287109375
30
0
0
VERTEX
8
0
10
3.6495562500000003
20
5.30235625
30
0
0
VERTEX
8
0
10
3.7564281250000002
20
5.3100000000000005
30
0
0
VERTEX
8
0
10
3.8635718750000003
20
5.3100000000000005
30
0
0
VERTEX
8
0
10
3.9704437500000003
20
5.30235625
30
0
0
VERTEX
8
0
10
4.0765
20
5.287109375
30
0
0
VERTEX
8
0
10
4.181196875
20
5.264331250000001
30
0
0
VERTEX
8
0
10
4.284
20
5.234146875
30
0
0
VERTEX
8
0
10
4.384390625
20
5.196703125
30
0
0
VERTEX
8
0
10
4.481853125
20
5.15219375
30
0
0
VERTEX
8
0
10
4.5758937500000005
20
5.10084375
30
0
0
VERTEX
8
0
10
4.666028125
20
5.042915625
30
0
0
VERTEX
8
0
10
4.751803125
20
4.97870625
30
0
0
VERTEX
8
0
10
4.832778125
20
4.9085406250000005
30
0
0
VERTEX
8
0
10
4.9085406250000005
20
4.832778125
30
0
0
VERTEX
8
0
10
4.97870625
20
4.751803125
30
0
0
VERTEX
8
0
10
5.042915625
20
4.666028125
30
0
0
VERTEX
8
0
10
5.10084375
20
4.5758937500000005
30
0
0
VERTEX
8
0
10
5.15219375
20
4.481853125
30
0
0
VERTEX
8
0
10
5.196703125
20
4.384390625
30
0
0
VERTEX
8
0
10
5.234146875
20
4.284
30
0
0
VERTEX
8
0
10
5.264331250000001
20
4.181196875
30
0
0
VERTEX
8
0
10
5.287109375
20
4.0765
30
0
0
VERTEX
8
0
10
5.30235625
20
3.9704437500000003
30
0
0
VERTEX
8
0
10
5.3100000000000005
20
3.8635718750000003
30
0
0
VERTEX
8
0
10
5.3100000000000005
20
3.7564281250000002
30
0
0
SEQEND
0
POLYLINE
66
1
8
holes
10
0.0
20
0.0
30
0.0
70
1
0
VERTEX
8
0
10
45.95
20
3.7564281250000002
30
0
0
VERTEX
8
0
10
45.94235625
20
3.6495562500000003
30
0
0
VERTEX
8
0
10
45.927109375
20
3.5435000000000003
30
0
0
VERTEX
8
0
10
45.904331250000006
20
3.438803125
30
0
0
VERTEX
8
0
10
45.874146875
20
3.3360000000000003
30
0
0
VERTEX
8
0
10
45.836703125
20
3.235609375
30
0
0
VERTEX
8
0
10
45.79219375
20
3.1381468750000003
30
0
0
VERTEX
8
0
10
45.74084375
20
3.04410625
30
0
0
VERTEX
8
0
10
45.682915625
20
2.953971875
30
0
0
VERTEX
8
0
10
45.61870625
20
2.868196875
30
0
0
VERTEX
8
0
10
45.548540625
20
2.787221875
30
0
0
VERTEX
8
0
10
45.472778125000005
20
2.711459375
30
0
0
VERTEX
8
0
10
45.391803125
20
2.64129375
30
0
0
VERTEX
8
0
10
45.306028125000005
20
2.577084375
30
0
0
VERTEX
8
0
10
45.21589375
20
2.51915625
30
0
0
VERTEX
8
0
10
45.121853125
20
2.46780625
30
0
0
VERTEX
8
0
10
45.024390625
20
2.423296875
30
0
0
VERTEX
8
0
10
44.924
20
2.385853125
30
0
0
VERTEX
8
0
10
44.821196875000005
20
2.35566875
30
0
0
VERTEX
8
0
10
44.7165
20
2.332890625
30
0
0
VERTEX
8
0
10
44.61044375
20
2.3176437500000002
30
0
0
VERTEX
8
0
10
44.503571875
20
2.31
30
0
0
VERTEX
8
0
10
44.396428125
20
2.31
30
0
0
VERTEX
8
0
10
44.289556250000004
20
2.3176437500000002
30
0
0
VERTEX
8
0
10
44.1835
20
2.332890625
30
0
0
VERTEX
8
0
10
44.078803125
20
2.35566875
30
0
0
VERTEX
8
0
10
43.976
20
2.385853125
30
0
0
VERTEX
8
0
10
43.875609375
20
2.423296875
30
0
0
VERTEX
8
0
10
43.778146875000004
20
2.46780625
30
0
0
VERTEX
8
0
10
43.68410625
20
2.51915625
30
0
0
VERTEX
8
0
10
43.593971875
20
2.577084375
30
0
0
VERTEX
8
0
10
43.508196875
20
2.64129375
30
0
0
VERTEX
8
0
10
43.427221875
20
2.711459375
30
0
0
VERTEX
8
0
10
43.351459375000005
20
2.787221875
30
0
0
VERTEX
8
0
10
43.28129375
20
2.868196875
30
0
0
VERTEX
8
0
10
43.217084375
20
2.953971875
30
0
0
VERTEX
8
0
10
43.15915625
20
3.04410625
30
0
0
VERTEX
8
0
10
43.10780625
20
3.1381468750000003
30
0
0
VERTEX
8
0
10
43.063296875
20
3.235609375
30
0
0
VERTEX
8
0
10
43.025853125000005
20
3.3360000000000003
30
0
0
VERTEX
8
0
10
42.99566875
20
3.438803125
30
0
0
VERTEX
8
0
10
42.972890625000005
20
3.5435000000000003
30
0
0
VERTEX
8
0
10
42.95764375
20
3.6495562500000003
30
0
0
VERTEX
8
0
10
42.95
20
3.7564281250000002
30
0
0
VERTEX
8
0
10
42.95
20
3.8635718750000003
30
0
0
VERTEX
8
0
10
42.95764375
20
3.9704437500000003
30
0
0
VERTEX
8
0
10
42.972890625000005
20
4.0765
30
0
0
VERTEX
8
0
10
42.99566875
20
4.181196875
30
0
0
VERTEX
8
0
10
43.025853125000005
20
4.284
30
0
0
VERTEX
8
0
10
43.063296875
20
4.384390625
30
0
0
VERTEX
8
0
10
43.10780625
20
4.481853125
30
0
0
VERTEX
8
0
10
43.15915625
20
4.5758937500000005
30
0
0
VERTEX
8
0
10
43.217084375
20
4.666028125
30
0
0
VERTEX
8
0
10
43.28129375
20
4.751803125
30
0
0
VERTEX
8
0
10
43.351459375000005
20
4.832778125
30
0
0
VERTEX
8
0
10
43.427221875
20
4.9085406250000005
30
0
0
VERTEX
8
0
10
43.508196875
20
4.97870625
30
0
0
VERTEX
8
0
10
43.593971875
20
5.042915625
30
0
0
VERTEX
8
0
10
43.68410625
20
5.10084375
30
0
0
VERTEX
8
0
10
43.778146875000004
20
5.15219375
30
0
0
VERTEX
8
0
10
43.875609375
20
5.196703125
30
0
0
VERTEX
8
0
10
43.976
20
5.234146875
30
0
0
VERTEX
8
0
10
44.078803125
20
5.264331250000001
30
0
0
VERTEX
8
0
10
44.1835
20
5.287109375
30
0
0
VERTEX
8
0
10
44.289556250000004
20
5.30235625
30
0
0
VERTEX
8
0
10
44.396428125
20
5.3100000000000005
30
0
0
VERTEX
8
0
10
44.503571875
20
5.3100000000000005
30
0
0
VERTEX
8
0
10
44.61044375
20
5.30235625
30
0
0
VERTEX
8
0
10
44.7165
20
5.287109375
30
0
0
VERTEX
8
0
10
44.821196875000005
20
5.264331250000001
30
0
0
VERTEX
8
0
10
44.924
20
5.234146875
30
0
0
VERTEX
8
0
10
45.024390625
20
5.196703125
30
0
0
VERTEX
8
0
10
45.121853125
20
5.15219375
30
0
0
VERTEX
8
0
10
45.21589375
20
5.10084375
30
0
0
VERTEX
8
0
10
45.306028125000005
20
5.042915625
30
0
0
VERTEX
8
0
10
45.391803125
20
4.97870625
30
0
0
VERTEX
8
0
10
45.472778125000005
20
4.9085406250000005
30
0
0
VERTEX
8
0
10
45.548540625
20
4.832778125
30
0
0
VERTEX
8
0
10
45.61870625
20
4.751803125
30
0
0
VERTEX
8
0
10
45.682915625
20
4.666028125
30
0
0
VERTEX
8
0
10
45.74084375
20
4.5758937500000005
30
0
0
VERTEX
8
0
10
45.79219375
20
4.481853125
30
0
0
VERTEX
8
0
10
45.836703125
20
4.384390625
30
0
0
VERTEX
8
0
10
45.874146875
20
4.284
30
0
0
VERTEX
8
0
10
45.904331250000006
20
4.181196875
30
0
0
VERTEX
8
0
10
45.927109375
20
4.0765
30
0
0
VERTEX
8
0
10
45.94235625
20
3.9704437500000003
30
0
0
VERTEX
8
0
10
45.95
20
3.8635718750000003
30
0
0
VERTEX
8
0
10
45.95
20
3.7564281250000002
30
0
0
SEQEND
0
POLYLINE
66
1
8
holes
10
0.0
20
0.0
30
0.0
70
1
0
VERTEX
8
0
10
45.95
20
21.536428125
30
0
0
VERTEX
8
0
10
45.94235625
20
21.42955625
30
0
0
VERTEX
8
0
10
45.927109375
20
21.323500000000003
30
0
0
VERTEX
8
0
10
45.904331250000006
20
21.218803125
30
0
0
VERTEX
8
0
10
45.874146875
20
21.116
30
0
0
VERTEX
8
0
10
45.836703125
20
21.015609375
30
0
0
VERTEX
8
0
10
45.79219375
20
20.918146875
30
0
0
VERTEX
8
0
10
45.74084375
20
20.82410625
30
0
0
VERTEX
8
0
10
45.682915625
20
20.733971875
30
0
0
VERTEX
8
0
10
45.61870625
20
20.648196875
30
0
0
VERTEX
8
0
10
45.548540625
20
20.567221875
30
0
0
VERTEX
8
0
10
45.472778125000005
20
20.491459375
30
0
0
VERTEX
8
0
10
45.391803125
20
20.42129375
30
0
0
VERTEX
8
0
10
45.306028125000005
20
20.357084375
30
0
0
VERTEX
8
0
10
45.21589375
20
20.29915625
30
0
0
VERTEX
8
0
10
45.121853125
20
20.24780625
30
0
0
VERTEX
8
0
10
45.024390625
20
20.203296875
30
0
0
VERTEX
8
0
10
44.924
20
20.165853125
30
0
0
VERTEX
8
0
10
44.821196875000005
20
20.13566875
30
0
0
VERTEX
8
0
10
44.7165
20
20.112890625000002
30
0
0
VERTEX
8
0
10
44.61044375
20
20.09764375
30
0
0
VERTEX
8
0
10
44.503571875
20
20.09
30
0
0
VERTEX
8
0
10
44.396428125
20
20.09
30
0
0
VERTEX
8
0
10
44.289556250000004
20
20.09764375
30
0
0
VERTEX
8
0
10
44.1835
20
20.112890625000002
30
0
0
VERTEX
8
0
10
44.078803125
20
20.13566875
30
0
0
VERTEX
8
0
10
43.976
20
20.165853125
30
0
0
VERTEX
8
0
10
43.875609375
20
20.203296875
30
0
0
VERTEX
8
0
10
43.778146875000004
20
20.24780625
30
0
0
VERTEX
8
0
10
43.68410625
20
20.29915625
30
0
0
VERTEX
8
0
10
43.593971875
20
20.357084375
30
0
0
VERTEX
8
0
10
43.508196875
20
20.42129375
30
0
0
VERTEX
8
0
10
43.427221875
20
20.491459375
30
0
0
VERTEX
8
0
10
43.351459375000005
20
20.567221875
30
0
0
VERTEX
8
0
10
43.28129375
20
20.648196875
30
0
0
VERTEX
8
0
10
43.217084375
20
20.733971875
30
0
0
VERTEX
8
0
10
43.15915625
20
20.82410625
30
0
0
VERTEX
8
0
10
43.10780625
20
20.918146875
30
0
0
VERTEX
8
0
10
43.063296875
20
21.015609375
30
0
0
VERTEX
8
0
10
43.025853125000005
20
21.116
30
0
0
VERTEX
8
0
10
42.99566875
20
21.218803125
30
0
0
VERTEX
8
0
10
42.972890625000005
20
21.323500000000003
30
0
0
VERTEX
8
0
10
42.95764375
20
21.42955625
30
0
0
VERTEX
8
0
10
42.95
20
21.536428125
30
0
0
VERTEX
8
0
10
42.95
20
21.643571875000003
30
0
0
VERTEX
8
0
10
42.95764375
20
21.750443750000002
30
0
0
VERTEX
8
0
10
42.972890625000005
20
21.8565
30
0
0
VERTEX
8
0
10
42.99566875
20
21.961196875000002
30
0
0
VERTEX
8
0
10
43.025853125000005
20
22.064
30
0
0
VERTEX
8
0
10
43.063296875
20
22.164390625
30
0
0
VERTEX
8
0
10
43.10780625
20
22.261853125000002
30
0
0
VERTEX
8
0
10
43.15915625
20
22.35589375
30
0
0
VERTEX
8
0
10
43.217084375
20
22.446028125
30
0
0
VERTEX
8
0
10
43.28129375
20
22.531803125
30
0
0
VERTEX
8
0
10
43.351459375000005
20
22.612778125000002
30
0
0
VERTEX
8
0
10
43.427221875
20
22.688540625
30
0
0
VERTEX
8
0
10
43.508196875
20
22.75870625
30
0
0
VERTEX
8
0
10
43.593971875
20
22.822915625
30
0
0
VERTEX
8
0
10
43.68410625
20
22.88084375
30
0
0
VERTEX
8
0
10
43.778146875000004
20
22.93219375
30
0
0
VERTEX
8
0
10
43.875609375
20
22.976703125
30
0
0
VERTEX
8
0
10
43.976
20
23.014146875
30
0
0
VERTEX
8
0
10
44.078803125
20
23.044331250000003
30
0
0
VERTEX
8
0
10
44.1835
20
23.067109375
30
0
0
VERTEX
8
0
10
44.289556250000004
20
23.08235625
30
0
0
VERTEX
8
0
10
44.396428125
20
23.09
30
0
0
VERTEX
8
0
10
44.503571875
20
23.09
30
0
0
VERTEX
8
0
10
44.61044375
20
23.08235625
30
0
0
VERTEX
8
0
10
44.7165
20
23.067109375
30
0
0
VERTEX
8
0
10
44.821196875000005
20
23.044331250000003
30
0
0
VERTEX
8
0
10
44.924
20
23.014146875
30
0
0
VERTEX
8
0
10
45.024390625
20
22.976703125
30
0
0
VERTEX
8
0
10
45.121853125
20
22.93219375
30
0
0
VERTEX
8
0
10
45.21589375
20
22.88084375
30
0
0
VERTEX
8
0
10
45.306028125000005
20
22.822915625
30
0
0
VERTEX
8
0
10
45.391803125
20
22.75870625
30
0
0
VERTEX
8
0
10
45.472778125000005
20
22.688540625
30
0
0
VERTEX
8
0
10
45.548540625
20
22.612778125000002
30
0
0
VERTEX
8
0
10
45.61870625
20
22.531803125
30
0
0
VERTEX
8
0
10
45.682915625
20
22.446028125
30
0
0
VERTEX
8
0
10
45.74084375
20
22.35589375
30
0
0
VERTEX
8
0
10
45.79219375
20
22.261853125000002
30
0
0
VERTEX
8
0
10
45.836703125
20
22.164390625
30
0
0
VERTEX
8
0
10
45.874146875
20
22.064
30
0
0
VERTEX
8
0
10
45.904331250000006
20
21.961196875000002
30
0
0
VERTEX
8
0
10
45.927109375
20
21.8565
30
0
0
VERTEX
8
0
10
45.94235625
20
21.750443750000002
30
0
0
VERTEX
8
0
10
45.95
20
21.643571875000003
30
0
0
VERTEX
8
0
10
45.95
20
21.536428125
30
0
0
SEQEND
0
POLYLINE
66
1
8
holes
10
0.0
20
0.0
30
0.0
70
1
0
VERTEX
8
0
10
5.3100000000000005
20
21.536428125
30
0
0
VERTEX
8
0
10
5.30235625
20
21.42955625
30
0
0
VERTEX
8
0
10
5.287109375
20
21.323500000000003
30
0
0
VERTEX
8
0
10
5.264331250000001
20
21.218803125
30
0
0
VERTEX
8
0
10
5.234146875
20
21.116
30
0
0
VERTEX
8
0
10
5.196703125
20
21.015609375
30
0
0
VERTEX
8
0
10
5.15219375
20
20.918146875
30
0
0
VERTEX
8
0
10
5.10084375
20
20.82410625
30
0
0
VERTEX
8
0
10
5.042915625
20
20.733971875
30
0
0
VERTEX
8
0
10
4.97870625
20
20.648196875
30
0
0
VERTEX
8
0
10
4.9085406250000005
20
20.567221875
30
0
0
VERTEX
8
0
10
4.832778125
20
20.491459375
30
0
0
VERTEX
8
0
10
4.751803125
20
20.42129375
30
0
0
VERTEX
8
0
10
4.666028125
20
20.357084375
30
0
0
VERTEX
8
0
10
4.5758937500000005
20
20.29915625
30
0
0
VERTEX
8
0
10
4.481853125
20
20.24780625
30
0
0
VERTEX
8
0
10
4.384390625
20
20.203296875
30
0
0
VERTEX
8
0
10
4.284
20
20.165853125
30
0
0
VERTEX
8
0
10
4.181196875
20
20.13566875
30
0
0
VERTEX
8
0
10
4.0765
20
20.112890625000002
30
0
0
VERTEX
8
0
10
3.9704437500000003
20
20.09764375
30
0
0
VERTEX
8
0
10
3.8635718750000003
20
20.09
30
0
0
VERTEX
8
0
10
3.7564281250000002
20
20.09
30
0
0
VERTEX
8
0
10
3.6495562500000003
20
20.09764375
30
0
0
VERTEX
8
0
10
3.5435000000000003
20
20.112890625000002
30
0
0
VERTEX
8
0
10
3.438803125
20
20.13566875
30
0
0
VERTEX
8
0
10
3.3360000000000003
20
20.165853125
30
0
0
VERTEX
8
0
10
3.235609375
20
20.203296875
30
0
0
VERTEX
8
0
10
3.1381468750000003
20
20.24780625
30
0
0
VERTEX
8
0
10
3.04410625
20
20.29915625
30
0
0
VERTEX
8
0
10
2.953971875
20
20.357084375
30
0
0
VERTEX
8
0
10
2.868196875
20
20.42129375
30
0
0
VERTEX
8
0
10
2.787221875
20
20.491459375
30
0
0
VERTEX
8
0
10
2.711459375
20
20.567221875
30
0
0
VERTEX
8
0
10
2.64129375
20
20.648196875
30
0
0
VERTEX
8
0
10
2.577084375
20
20.733971875
30
0
0
VERTEX
8
0
10
2.51915625
20
20.82410625
30
0
0
VERTEX
8
0
10
2.46780625
20
20.918146875
30
0
0
VERTEX
8
0
10
2.423296875
20
21.015609375
30
0
0
VERTEX
8
0
10
2.385853125
20
21.116
30
0
0
VERTEX
8
0
10
2.35566875
20
21.218803125
30
0
0
VERTEX
8
0
10
2.332890625
20
21.323500000000003
30
0
0
VERTEX
8
0
10
2.3176437500000002
20
21.42955625
30
0
0
VERTEX
8
0
10
2.31
20
21.536428125
30
0
0
VERTEX
8
0
10
2.31
20
21.643571875000003
30
0
0
VERTEX
8
0
10
2.3176437500000002
20
21.750443750000002
30
0
0
VERTEX
8
0
10
2.332890625
20
21.8565
30
0
0
VERTEX
8
0
10
2.35566875
20
21.961196875000002
30
0
0
VERTEX
8
0
10
2.385853125
20
22.064
30
0
0
VERTEX
8
0
10
2.423296875
20
22.164390625
30
0
0
VERTEX
8
0
10
2.46780625
20
22.261853125000002
30
0
0
VERTEX
8
0
10
2.51915625
20
22.35589375
30
0
0
VERTEX
8
0
10
2.577084375
20
22.446028125
30
0
0
VERTEX
8
0
10
2.64129375
20
22.531803125
30
0
0
VERTEX
8
0
10
2.711459375
20
22.612778125000002
30
0
0
VERTEX
8
0
10
2.787221875
20
22.688540625
30
0
0
VERTEX
8
0
10
2.868196875
20
22.75870625
30
0
0
VERTEX
8
0
10
2.953971875
20
22.822915625
30
0
0
VERTEX
8
0
10
3.04410625
20
22.88084375
30
0
0
VERTEX
8
0
10
3.1381468750000003
20
22.93219375
30
0
0
VERTEX
8
0
10
3.235609375
20
22.976703125
30
0
0
VERTEX
8
0
10
3.3360000000000003
20
23.014146875
30
0
0
VERTEX
8
0
10
3.438803125
20
23.044331250000003
30
0
0
VERTEX
8
0
10
3.5435000000000003
20
23.067109375
30
0
0
VERTEX
8
0
10
3.6495562500000003
20
23.08235625
30
0
0
VERTEX
8
0
10
3.7564281250000002
20
23.09
30
0
0
VERTEX
8
0
10
3.8635718750000003
20
23.09
30
0
0
VERTEX
8
0
10
3.9704437500000003
20
23.08235625
30
0
0
VERTEX
8
0
10
4.0765
20
23.067109375
30
0
0
VERTEX
8
0
10
4.181196875
20
23.044331250000003
30
0
0
VERTEX
8
0
10
4.284
20
23.014146875
30
0
0
VERTEX
8
0
10
4.384390625
20
22.976703125
30
0
0
VERTEX
8
0
10
4.481853125
20
22.93219375
30
0
0
VERTEX
8
0
10
4.5758937500000005
20
22.88084375
30
0
0
VERTEX
8
0
10
4.666028125
20
22.822915625
30
0
0
VERTEX
8
0
10
4.751803125
20
22.75870625
30
0
0
VERTEX
8
0
10
4.832778125
20
22.688540625
30
0
0
VERTEX
8
0
10
4.9085406250000005
20
22.612778125000002
30
0
0
VERTEX
8
0
10
4.97870625
20
22.531803125
30
0
0
VERTEX
8
0
10
5.042915625
20
22.446028125
30
0
0
VERTEX
8
0
10
5.10084375
20
22.35589375
30
0
0
VERTEX
8
0
10
5.15219375
20
22.261853125000002
30
0
0
VERTEX
8
0
10
5.196703125
20
22.164390625
30
0
0
VERTEX
8
0
10
5.234146875
20
22.064
30
0
0
VERTEX
8
0
10
5.264331250000001
20
21.961196875000002
30
0
0
VERTEX
8
0
10
5.287109375
20
21.8565
30
0
0
VERTEX
8
0
10
5.30235625
20
21.750443750000002
30
0
0
VERTEX
8
0
10
5.3100000000000005
20
21.643571875000003
30
0
0
VERTEX
8
0
10
5.3100000000000005
20
21.536428125
30
0
0
SEQEND
0
POLYLINE
66
1
8
1_copper
10
0.0
20
0.0
30
0.0
70
1
0
VERTEX
8
0
10
5.558428125
20
14.365015625
30
0
42
0.16997656369761122
0
VERTEX
8
0
10
5.603881250000001
20
14.386118750000001
30
0
0
VERTEX
8
0
10
8.71528125
20
17.49751875
30
0
42
0.198912367379658
0
VERTEX
8
0
10
8.7376
20
17.5514
30
0
0
VERTEX
8
0
10
8.7376
20
18.164818750000002
30
0
42
0.3711436710623373
0
VERTEX
8
0
10
9.4234
20
18.885565625
30
0
0
VERTEX
8
0
10
9.4234
20
20.484434375
30
0
42
0.9520795017710562
0
VERTEX
8
0
10
7.8994
20
20.484434375
30
0
0
VERTEX
8
0
10
7.8994
20
18.885565625
30
0
42
0.3711436710623373
0
VERTEX
8
0
10
8.5852
20
18.164818750000002
30
0
0
VERTEX
8
0
10
8.5852
20
17.5829625
30
0
0
VERTEX
8
0
10
5.5184375
20
14.516200000000001
30
0
0
VERTEX
8
0
10
3.18
20
14.516200000000001
30
0
42
0.8710665068920351
0
VERTEX
8
0
10
3.1592937500000002
20
14.36666875
30
0
0
VERTEX
8
0
10
3.18
20
14.363800000000001
30
0
0
VERTEX
8
0
10
5.55
20
14.363800000000001
30
0
0
SEQEND
0
POLYLINE
66
1
8
16_copper
10
0.0
20
0.0
30
0.0
70
1
0
VERTEX
8
0
10
8.77334375
20
18.1683375
30
0
42
0.3578057741447831
0
VERTEX
8
0
10
9.4234
20
18.885565625
30
0
0
VERTEX
8
0
10
9.4234
20
20.484434375
30
0
42
0.9520795017710562
0
VERTEX
8
0
10
7.8994
20
20.484434375
30
0
0
VERTEX
8
0
10
7.8994
20
18.885565625
30
0
0
VERTEX
8
0
10
7.9067375
20
18.81105625
30
0
0
VERTEX
8
0
10
7.92134375
20
18.737625
30
0
0
VERTEX
8
0
10
7.943078125
20
18.66598125
30
0
0
VERTEX
8
0
10
7.971728125
20
18.596809375
30
0
0
VERTEX
8
0
10
8.007021875
20
18.53078125
30
0
0
VERTEX
8
0
10
8.048618750000001
20
18.46853125
30
0
0
VERTEX
8
0
10
8.096115625000001
20
18.410656250000002
30
0
0
VERTEX
8
0
10
8.149056250000001
20
18.357715625
30
0
0
VERTEX
8
0
10
8.20693125
20
18.31021875
30
0
0
VERTEX
8
0
10
8.26918125
20
18.268621875
30
0
0
VERTEX
8
0
10
8.335209375
20
18.233328125
30
0
0
VERTEX
8
0
10
8.40438125
20
18.204678125
30
0
0
VERTEX
8
0
10
8.476025
20
18.18294375
30
0
0
VERTEX
8
0
10
8.54945625
20
18.1683375
30
0
0
VERTEX
8
0
10
8.623965625
20
18.161
30
0
0
VERTEX
8
0
10
8.698834375
20
18.161
30
0
0
SEQEND
0
POLYLINE
66
1
8
1_copper
10
0.0
20
0.0
30
0.0
70
1
0
VERTEX
8
0
10
4.598428125
20
10.865015625
30
0
42
0.16997656369761122
0
VERTEX
8
0
10
4.643881250000001
20
10.886118750000001
30
0
0
VERTEX
8
0
10
11.483881250000001
20
17.72611875
30
0
42
0.198912367379658
0
VERTEX
8
0
10
11.5062
20
17.78
30
0
0
VERTEX
8
0
10
11.5062
20
18.22446875
30
0
42
0.2849223807724057
0
VERTEX
8
0
10
11.9634
20
18.885565625
30
0
0
VERTEX
8
0
10
11.9634
20
20.484434375
30
0
42
0.9520795017710562
0
VERTEX
8
0
10
10.439400000000001
20
20.484434375
30
0
0
VERTEX
8
0
10
10.439400000000001
20
18.885565625
30
0
42
0.45954855801534306
0
VERTEX
8
0
10
11.3538
20
18.176384375
30
0
0
VERTEX
8
0
10
11.3538
20
17.8115625
30
0
0
VERTEX
8
0
10
4.5584375
20
11.016200000000001
30
0
0
VERTEX
8
0
10
3.18
20
11.016200000000001
30
0
42
0.8710665068920351
0
VERTEX
8
0
10
3.1592937500000002
20
10.86666875
30
0
0
VERTEX
8
0
10
3.18
20
10.863800000000001
30
0
0
VERTEX
8
0
10
4.59
20
10.863800000000001
30
0
0
SEQEND
0
POLYLINE
66
1
8
16_copper
10
0.0
20
0.0
30
0.0
70
1
0
VERTEX
8
0
10
11.313343750000001
20
18.1683375
30
0
42
0.3578057741447831
0
VERTEX
8
0
10
11.9634
20
18.885565625
30
0
0
VERTEX
8
0
10
11.9634
20
20.484434375
30
0
42
0.9520795017710562
0
VERTEX
8
0
10
10.439400000000001
20
20.484434375
30
0
0
VERTEX
8
0
10
10.439400000000001
20
18.885565625
30
0
0
VERTEX
8
0
10
10.446737500000001
20
18.81105625
30
0
0
VERTEX
8
0
10
10.461343750000001
20
18.737625
30
0
0
VERTEX
8
0
10
10.483078125
20
18.66598125
30
0
0
VERTEX
8
0
10
10.511728125000001
20
18.596809375
30
0
0
VERTEX
8
0
10
10.547021875
20
18.53078125
30
0
0
VERTEX
8
0
10
10.58861875
20
18.46853125
30
0
0
VERTEX
8
0
10
10.636115625
20
18.410656250000002
30
0
0
VERTEX
8
0
10
10.68905625
20
18.357715625
30
0
0
VERTEX
8
0
10
10.746931250000001
20
18.31021875
30
0
0
VERTEX
8
0
10
10.80918125
20
18.268621875
30
0
0
VERTEX
8
0
10
10.875209375
20
18.233328125
30
0
0
VERTEX
8
0
10
10.944381250000001
20
18.204678125
30
0
0
VERTEX
8
0
10
11.016025
20
18.18294375
30
0
0
VERTEX
8
0
10
11.089456250000001
20
18.1683375
30
0
0
VERTEX
8
0
10
11.163965625000001
20
18.161
30
0
0
VERTEX
8
0
10
11.238834375
20
18.161
30
0
0
SEQEND
0
POLYLINE
66
1
8
1_copper
10
0.0
20
0.0
30
0.0
70
1
0
VERTEX
8
0
10
28.088543750000003
20
4.117909375
30
0
42
0.8660508493283852
0
VERTEX
8
0
10
28.067
20
4.2672
30
0
0
VERTEX
8
0
10
12.7315625
20
4.2672
30
0
0
VERTEX
8
0
10
8.9662
20
8.032562500000001
30
0
0
VERTEX
8
0
10
8.9662
20
12.668437500000001
30
0
0
VERTEX
8
0
10
10.233881250000001
20
13.93611875
30
0
42
0.198912367379658
0
VERTEX
8
0
10
10.2562
20
13.99
30
0
0
VERTEX
8
0
10
10.2562
20
14.408437500000002
30
0
0
VERTEX
8
0
10
14.663509375
20
18.815746875000002
30
0
0
VERTEX
8
0
10
14.71245625
20
18.7668
30
0
0
VERTEX
8
0
10
15.25954375
20
18.7668
30
0
0
VERTEX
8
0
10
15.6464
20
19.15365625
30
0
0
VERTEX
8
0
10
15.6464
20
19.70074375
30
0
0
VERTEX
8
0
10
15.25954375
20
20.087600000000002
30
0
0
VERTEX
8
0
10
14.71245625
20
20.087600000000002
30
0
0
VERTEX
8
0
10
14.325600000000001
20
19.70074375
30
0
0
VERTEX
8
0
10
14.325600000000001
20
19.15365625
30
0
0
VERTEX
8
0
10
14.555746875
20
18.923509375000002
30
0
0
VERTEX
8
0
10
10.12611875
20
14.493881250000001
30
0
42
0.198912367379658
0
VERTEX
8
0
10
10.1038
20
14.440000000000001
30
0
0
VERTEX
8
0
10
10.1038
20
14.0215625
30
0
0
VERTEX
8
0
10
8.83611875
20
12.753881250000001
30
0
42
0.198912367379658
0
VERTEX
8
0
10
8.8138
20
12.700000000000001
30
0
0
VERTEX
8
0
10
8.8138
20
8.001000000000001
30
0
42
0.198912367379658
0
VERTEX
8
0
10
8.83611875
20
7.9471187500000005
30
0
0
VERTEX
8
0
10
12.646118750000001
20
4.13711875
30
0
42
0.198912367379658
0
VERTEX
8
0
10
12.700000000000001
20
4.1148
30
0
0
VERTEX
8
0
10
28.067
20
4.1148
30
0
0
SEQEND
0
POLYLINE
66
1
8
16_copper
10
0.0
20
0.0
30
0.0
70
1
0
VERTEX
8
0
10
15.6464
20
19.15365625
30
0
0
VERTEX
8
0
10
15.6464
20
19.70074375
30
0
0
VERTEX
8
0
10
15.25954375
20
20.087600000000002
30
0
0
VERTEX
8
0
10
14.71245625
20
20.087600000000002
30
0
0
VERTEX
8
0
10
14.325600000000001
20
19.70074375
30
0
0
VERTEX
8
0
10
14.325600000000001
20
19.15365625
30
0
0
VERTEX
8
0
10
14.71245625
20
18.7668
30
0
0
VERTEX
8
0
10
15.25954375
20
18.7668
30
0
0
SEQEND
0
POLYLINE
66
1
8
1_copper
10
0.0
20
0.0
30
0.0
70
1
0
VERTEX
8
0
10
18.186400000000003
20
19.15365625
30
0
0
VERTEX
8
0
10
18.186400000000003
20
19.70074375
30
0
0
VERTEX
8
0
10
18.046853125000002
20
19.840290625
30
0
0
VERTEX
8
0
10
18.4047625
20
20.1982
30
0
0
VERTEX
8
0
10
24.488
20
20.1982
30
0
0
VERTEX
8
0
10
24.488
20
20.000856250000002
30
0
0
VERTEX
8
0
10
24.87485625
20
19.614
30
0
0
VERTEX
8
0
10
25.42194375
20
19.614
30
0
0
VERTEX
8
0
10
25.8088
20
20.000856250000002
30
0
0
VERTEX
8
0
10
25.8088
20
20.54794375
30
0
0
VERTEX
8
0
10
25.42194375
20
20.934800000000003
30
0
0
VERTEX
8
0
10
24.87485625
20
20.934800000000003
30
0
0
VERTEX
8
0
10
24.488
20
20.54794375
30
0
0
VERTEX
8
0
10
24.488
20
20.3506
30
0
0
VERTEX
8
0
10
18.3732
20
20.3506
30
0
42
0.198912367379658
0
VERTEX
8
0
10
18.31931875
20
20.32828125
30
0
0
VERTEX
8
0
10
17.939090625000002
20
19.948053125
30
0
0
VERTEX
8
0
10
17.79954375
20
20.087600000000002
30
0
0
VERTEX
8
0
10
17.25245625
20
20.087600000000002
30
0
0
VERTEX
8
0
10
16.8656
20
19.70074375
30
0
0
VERTEX
8
0
10
16.8656
20
19.15365625
30
0
0
VERTEX
8
0
10
17.25245625
20
18.7668
30
0
0
VERTEX
8
0
10
17.79954375
20
18.7668
30
0
0
SEQEND
0
POLYLINE
66
1
8
16_copper
10
0.0
20
0.0
30
0.0
70
1
0
VERTEX
8
0
10
25.8088
20
20.000856250000002
30
0
0
VERTEX
8
0
10
25.8088
20
20.54794375
30
0
0
VERTEX
8
0
10
25.42194375
20
20.934800000000003
30
0
0
VERTEX
8
0
10
24.87485625
20
20.934800000000003
30
0
0
VERTEX
8
0
10
24.488
20
20.54794375
30
0
0
VERTEX
8
0
10
24.488
20
20.000856250000002
30
0
0
VERTEX
8
0
10
24.87485625
20
19.614
30
0
0
VERTEX
8
0
10
25.42194375
20
19.614
30
0
0
SEQEND
0
POLYLINE
66
1
8
16_copper
10
0.0
20
0.0
30
0.0
70
1
0
VERTEX
8
0
10
18.186400000000003
20
19.15365625
30
0
0
VERTEX
8
0
10
18.186400000000003
20
19.70074375
30
0
0
VERTEX
8
0
10
17.79954375
20
20.087600000000002
30
0
0
VERTEX
8
0
10
17.25245625
20
20.087600000000002
30
0
0
VERTEX
8
0
10
16.8656
20
19.70074375
30
0
0
VERTEX
8
0
10
16.8656
20
19.15365625
30
0
0
VERTEX
8
0
10
17.25245625
20
18.7668
30
0
0
VERTEX
8
0
10
17.79954375
20
18.7668
30
0
0
SEQEND
0
POLYLINE
66
1
8
1_copper
10
0.0
20
0.0
30
0.0
70
1
0
VERTEX
8
0
10
39.407290625
20
13.328746875
30
0
0
VERTEX
8
0
10
39.454918750000004
20
13.281118750000001
30
0
42
0.198912367379658
0
VERTEX
8
0
10
39.5088
20
13.2588
30
0
0
VERTEX
8
0
10
44.1706
20
13.2588
30
0
42
0.198912367379658
0
VERTEX
8
0
10
44.224481250000004
20
13.281118750000001
30
0
0
VERTEX
8
0
10
44.7101625
20
13.7668
30
0
0
VERTEX
8
0
10
46.163834375
20
13.7668
30
0
42
0.9520795017710562
0
VERTEX
8
0
10
46.163834375
20
15.2908
30
0
0
VERTEX
8
0
10
44.564965625
20
15.2908
30
0
42
0.9126531490154169
0
VERTEX
8
0
10
44.500943750000005
20
13.773106250000001
30
0
0
VERTEX
8
0
10
44.1390375
20
13.411200000000001
30
0
0
VERTEX
8
0
10
39.5403625
20
13.411200000000001
30
0
0
VERTEX
8
0
10
39.515053125
20
13.436509375
30
0
0
VERTEX
8
0
10
39.6546
20
13.57605625
30
0
0
VERTEX
8
0
10
39.6546
20
14.12314375
30
0
0
VERTEX
8
0
10
39.26774375
20
14.510000000000002
30
0
0
VERTEX
8
0
10
38.720656250000005
20
14.510000000000002
30
0
0
VERTEX
8
0
10
38.333800000000004
20
14.12314375
30
0
0
VERTEX
8
0
10
38.333800000000004
20
13.57605625
30
0
0
VERTEX
8
0
10
38.720656250000005
20
13.189200000000001
30
0
0
VERTEX
8
0
10
39.26774375
20
13.189200000000001
30
0
0
SEQEND
0
POLYLINE
66
1
8
16_copper
10
0.0
20
0.0
30
0.0
70
1
0
VERTEX
8
0
10
46.238343750000006
20
13.7741375
30
0
42
0.9063472543261978
0
VERTEX
8
0
10
46.163834375
20
15.2908
30
0
0
VERTEX
8
0
10
44.564965625
20
15.2908
30
0
42
0.9520795017710562
0
VERTEX
8
0
10
44.564965625
20
13.7668
30
0
0
VERTEX
8
0
10
46.163834375
20
13.7668
30
0
0
SEQEND
0
POLYLINE
66
1
8
16_copper
10
0.0
20
0.0
30
0.0
70
1
0
VERTEX
8
0
10
39.6546
20
13.57605625
30
0
0
VERTEX
8
0
10
39.6546
20
14.12314375
30
0
0
VERTEX
8
0
10
39.26774375
20
14.510000000000002
30
0
0
VERTEX
8
0
10
38.720656250000005
20
14.510000000000002
30
0
0
VERTEX
8
0
10
38.333800000000004
20
14.12314375
30
0
0
VERTEX
8
0
10
38.333800000000004
20
13.57605625
30
0
0
VERTEX
8
0
10
38.720656250000005
20
13.189200000000001
30
0
0
VERTEX
8
0
10
39.26774375
20
13.189200000000001
30
0
0
SEQEND
0
POLYLINE
66
1
8
1_copper
10
0.0
20
0.0
30
0.0
70
1
0
VERTEX
8
0
10
32.034600000000005
20
13.57605625
30
0
0
VERTEX
8
0
10
32.034600000000005
20
14.12314375
30
0
0
VERTEX
8
0
10
31.64774375
20
14.510000000000002
30
0
0
VERTEX
8
0
10
31.10065625
20
14.510000000000002
30
0
0
VERTEX
8
0
10
30.961109375000003
20
14.370453125000001
30
0
0
VERTEX
8
0
10
28.109753125
20
17.221809375
30
0
0
VERTEX
8
0
10
28.3488
20
17.46085625
30
0
0
VERTEX
8
0
10
28.3488
20
18.007943750000003
30
0
0
VERTEX
8
0
10
27.96194375
20
18.3948
30
0
0
VERTEX
8
0
10
27.41485625
20
18.3948
30
0
0
VERTEX
8
0
10
27.028000000000002
20
18.007943750000003
30
0
0
VERTEX
8
0
10
27.028000000000002
20
17.46085625
30
0
0
VERTEX
8
0
10
27.41485625
20
17.074
30
0
0
VERTEX
8
0
10
27.96194375
20
17.074
30
0
0
VERTEX
8
0
10
28.001990625
20
17.114046875
30
0
0
VERTEX
8
0
10
30.853346875
20
14.262690625000001
30
0
0
VERTEX
8
0
10
30.713800000000003
20
14.12314375
30
0
0
VERTEX
8
0
10
30.713800000000003
20
13.57605625
30
0
0
VERTEX
8
0
10
31.10065625
20
13.189200000000001
30
0
0
VERTEX
8
0
10
31.64774375
20
13.189200000000001
30
0
0
SEQEND
0
POLYLINE
66
1
8
16_copper
10
0.0
20
0.0
30
0.0
70
1
0
VERTEX
8
0
10
28.3488
20
17.46085625
30
0
0
VERTEX
8
0
10
28.3488
20
18.007943750000003
30
0
0
VERTEX
8
0
10
27.96194375
20
18.3948
30
0
0
VERTEX
8
0
10
27.41485625
20
18.3948
30
0
0
VERTEX
8
0
10
27.028000000000002
20
18.007943750000003
30
0
0
VERTEX
8
0
10
27.028000000000002
20
17.46085625
30
0
0
VERTEX
8
0
10
27.41485625
20
17.074
30
0
0
VERTEX
8
0
10
27.96194375
20
17.074
30
0
0
SEQEND
0
POLYLINE
66
1
8
16_copper
10
0.0
20
0.0
30
0.0
70
1
0
VERTEX
8
0
10
32.034600000000005
20
13.57605625
30
0
0
VERTEX
8
0
10
32.034600000000005
20
14.12314375
30
0
0
VERTEX
8
0
10
31.64774375
20
14.510000000000002
30
0
0
VERTEX
8
0
10
31.10065625
20
14.510000000000002
30
0
0
VERTEX
8
0
10
30.713800000000003
20
14.12314375
30
0
0
VERTEX
8
0
10
30.713800000000003
20
13.57605625
30
0
0
VERTEX
8
0
10
31.10065625
20
13.189200000000001
30
0
0
VERTEX
8
0
10
31.64774375
20
13.189200000000001
30
0
0
SEQEND
0
POLYLINE
66
1
8
1_copper
10
0.0
20
0.0
30
0.0
70
1
0
VERTEX
8
0
10
39.759428125
20
4.116015625
30
0
42
0.16997656369761122
0
VERTEX
8
0
10
39.80488125
20
4.13711875
30
0
0
VERTEX
8
0
10
43.2115625
20
7.5438
30
0
0
VERTEX
8
0
10
45.72
20
7.5438
30
0
42
0.41421356237309503
0
VERTEX
8
0
10
45.7962
20
7.62
30
0
0
VERTEX
8
0
10
45.7962
20
8.6868
30
0
0
VERTEX
8
0
10
46.163834375
20
8.6868
30
0
42
0.9520795017710562
0
VERTEX
8
0
10
46.163834375
20
10.2108
30
0
0
VERTEX
8
0
10
44.564965625
20
10.2108
30
0
42
0.9520795017710562
0
VERTEX
8
0
10
44.564965625
20
8.6868
30
0
0
VERTEX
8
0
10
45.6438
20
8.6868
30
0
0
VERTEX
8
0
10
45.6438
20
7.6962
30
0
0
VERTEX
8
0
10
43.18
20
7.6962
30
0
42
0.198912367379658
0
VERTEX
8
0
10
43.12611875
20
7.67388125
30
0
0
VERTEX
8
0
10
39.719437500000005
20
4.2672
30
0
0
VERTEX
8
0
10
33.147
20
4.2672
30
0
42
0.8710665068920351
0
VERTEX
8
0
10
33.12629375
20
4.11766875
30
0
0
VERTEX
8
0
10
33.147
20
4.1148
30
0
0
VERTEX
8
0
10
39.751000000000005
20
4.1148
30
0
0
SEQEND
0
POLYLINE
66
1
8
16_copper
10
0.0
20
0.0
30
0.0
70
1
0
VERTEX
8
0
10
46.238343750000006
20
8.6941375
30
0
42
0.9063472543261978
0
VERTEX
8
0
10
46.163834375
20
10.2108
30
0
0
VERTEX
8
0
10
44.564965625
20
10.2108
30
0
42
0.9520795017710562
0
VERTEX
8
0
10
44.564965625
20
8.6868
30
0
0
VERTEX
8
0
10
46.163834375
20
8.6868
30
0
0
SEQEND
0
POLYLINE
66
1
8
1_copper
10
0.0
20
0.0
30
0.0
70
1
0
VERTEX
8
0
10
31.161
20
4.745
30
0
0
VERTEX
8
0
10
30.1607625
20
4.745
30
0
0
VERTEX
8
0
10
28.0162
20
6.8895625
30
0
0
VERTEX
8
0
10
28.0162
20
10.16
30
0
42
0.41421356237309503
0
VERTEX
8
0
10
27.94
20
10.2362
30
0
0
VERTEX
8
0
10
25.225562500000002
20
10.2362
30
0
0
VERTEX
8
0
10
22.7617625
20
12.700000000000001
30
0
0
VERTEX
8
0
10
24.735309375
20
14.673546875000001
30
0
0
VERTEX
8
0
10
24.87485625
20
14.534
30
0
0
VERTEX
8
0
10
25.42194375
20
14.534
30
0
0
VERTEX
8
0
10
25.8088
20
14.92085625
30
0
0
VERTEX
8
0
10
25.8088
20
15.46794375
30
0
0
VERTEX
8
0
10
25.42194375
20
15.854800000000001
30
0
0
VERTEX
8
0
10
24.87485625
20
15.854800000000001
30
0
0
VERTEX
8
0
10
24.488
20
15.46794375
30
0
0
VERTEX
8
0
10
24.488
20
14.92085625
30
0
0
VERTEX
8
0
10
24.627546875
20
14.781309375000001
30
0
0
VERTEX
8
0
10
22.6224375
20
12.776200000000001
30
0
0
VERTEX
8
0
10
17.78
20
12.776200000000001
30
0
42
0.198912367379658
0
VERTEX
8
0
10
17.72611875
20
12.753881250000001
30
0
0
VERTEX
8
0
10
15.988437500000002
20
11.016200000000001
30
0
0
VERTEX
8
0
10
10.18
20
11.016200000000001
30
0
42
0.8710665068920351
0
VERTEX
8
0
10
10.15929375
20
10.86666875
30
0
0
VERTEX
8
0
10
10.18
20
10.863800000000001
30
0
0
VERTEX
8
0
10
16.02
20
10.863800000000001
30
0
42
0.198912367379658
0
VERTEX
8
0
10
16.07388125
20
10.886118750000001
30
0
0
VERTEX
8
0
10
17.8115625
20
12.623800000000001
30
0
0
VERTEX
8
0
10
22.6224375
20
12.623800000000001
30
0
0
VERTEX
8
0
10
25.140118750000003
20
10.10611875
30
0
42
0.198912367379658
0
VERTEX
8
0
10
25.194000000000003
20
10.0838
30
0
0
VERTEX
8
0
10
27.8638
20
10.0838
30
0
0
VERTEX
8
0
10
27.8638
20
6.8580000000000005
30
0
42
0.198912367379658
0
VERTEX
8
0
10
27.88611875
20
6.804118750000001
30
0
0
VERTEX
8
0
10
30.053
20
4.6372375
30
0
0
VERTEX
8
0
10
30.053
20
3.637
30
0
0
VERTEX
8
0
10
31.161
20
3.637
30
0
0
SEQEND
0
POLYLINE
66
1
8
16_copper
10
0.0
20
0.0
30
0.0
70
1
0
VERTEX
8
0
10
25.8088
20
14.92085625
30
0
0
VERTEX
8
0
10
25.8088
20
15.46794375
30
0
0
VERTEX
8
0
10
25.42194375
20
15.854800000000001
30
0
0
VERTEX
8
0
10
24.87485625
20
15.854800000000001
30
0
0
VERTEX
8
0
10
24.488
20
15.46794375
30
0
0
VERTEX
8
0
10
24.488
20
14.92085625
30
0
0
VERTEX
8
0
10
24.87485625
20
14.534
30
0
0
VERTEX
8
0
10
25.42194375
20
14.534
30
0
0
SEQEND
0
POLYLINE
66
1
8
16_copper
10
0.0
20
0.0
30
0.0
70
1
0
VERTEX
8
0
10
31.161
20
4.745
30
0
0
VERTEX
8
0
10
30.053
20
4.745
30
0
0
VERTEX
8
0
10
30.053
20
3.637
30
0
0
VERTEX
8
0
10
31.161
20
3.637
30
0
0
SEQEND
0
POLYLINE
66
1
8
1_copper
10
0.0
20
0.0
30
0.0
70
1
0
VERTEX
8
0
10
38.11689375
20
10.085696875
30
0
42
0.14139007296259895
0
VERTEX
8
0
10
38.153881250000005
20
10.10611875
30
0
0
VERTEX
8
0
10
38.8935625
20
10.8458
30
0
0
VERTEX
8
0
10
44.2976
20
10.8458
30
0
42
0.198912367379658
0
VERTEX
8
0
10
44.35148125
20
10.86811875
30
0
0
VERTEX
8
0
10
44.7101625
20
11.2268
30
0
0
VERTEX
8
0
10
46.163834375
20
11.2268
30
0
42
0.9520795017710562
0
VERTEX
8
0
10
46.163834375
20
12.7508
30
0
0
VERTEX
8
0
10
44.564965625
20
12.7508
30
0
42
0.9126531490154169
0
VERTEX
8
0
10
44.500943750000005
20
11.23310625
30
0
0
VERTEX
8
0
10
44.2660375
20
10.9982
30
0
0
VERTEX
8
0
10
38.862
20
10.9982
30
0
42
0.198912367379658
0
VERTEX
8
0
10
38.80811875
20
10.97588125
30
0
0
VERTEX
8
0
10
38.046118750000005
20
10.21388125
30
0
0
VERTEX
8
0
10
38.033084375
20
10.19645
30
0
0
VERTEX
8
0
10
38.025509375
20
10.17604375
30
0
0
VERTEX
8
0
10
38.024012500000005
20
10.154328125000001
30
0
0
VERTEX
8
0
10
38.028715625000004
20
10.133075
30
0
0
VERTEX
8
0
10
38.0392375
20
10.11401875
30
0
0
VERTEX
8
0
10
38.054715625
20
10.098715625
30
0
0
VERTEX
8
0
10
38.073890625000004
20
10.0884125
30
0
0
VERTEX
8
0
10
38.095196875
20
10.083953125
30
0
0
SEQEND
0
POLYLINE
66
1
8
16_copper
10
0.0
20
0.0
30
0.0
70
1
0
VERTEX
8
0
10
46.238343750000006
20
11.234137500000001
30
0
42
0.9063472543261978
0
VERTEX
8
0
10
46.163834375
20
12.7508
30
0
0
VERTEX
8
0
10
44.564965625
20
12.7508
30
0
42
0.9520795017710562
0
VERTEX
8
0
10
44.564965625
20
11.2268
30
0
0
VERTEX
8
0
10
46.163834375
20
11.2268
30
0
0
SEQEND
0
CIRCLE
8
drills_NPTH
10
3.81
20
3.81
30
0
40
1.5
0
CIRCLE
8
drills_NPTH
10
44.45
20
3.81
30
0
40
1.5
0
CIRCLE
8
drills_NPTH
10
44.45
20
21.59
30
0
40
1.5
0
CIRCLE
8
drills_NPTH
10
3.81
20
21.59
30
0
40
1.5
0
CIRCLE
8
drills_PTH
10
38.1
20
10.16
30
0
40
0.5588000000000001
0
CIRCLE
8
drills_PTH
10
27.94
20
10.16
30
0
40
0.5588000000000001
0
CIRCLE
8
drills_PTH
10
3.18
20
14.440000000000001
30
0
40
0.55
0
CIRCLE
8
drills_PTH
10
3.18
20
10.940000000000001
30
0
40
0.55
0
CIRCLE
8
drills_PTH
10
10.18
20
10.940000000000001
30
0
40
0.55
0
CIRCLE
8
drills_PTH
10
10.18
20
14.440000000000001
30
0
40
0.55
0
CIRCLE
8
drills_PTH
10
45.3644
20
9.4488
30
0
40
0.508
0
CIRCLE
8
drills_PTH
10
45.3644
20
11.988800000000001
30
0
40
0.508
0
CIRCLE
8
drills_PTH
10
45.3644
20
14.5288
30
0
40
0.508
0
CIRCLE
8
drills_PTH
10
11.201400000000001
20
19.685000000000002
30
0
40
0.508
0
CIRCLE
8
drills_PTH
10
8.6614
20
19.685000000000002
30
0
40
0.508
0
CIRCLE
8
drills_PTH
10
14.986
20
19.427200000000003
30
0
40
0.40640000000000004
0
CIRCLE
8
drills_PTH
10
17.526
20
19.427200000000003
30
0
40
0.40640000000000004
0
CIRCLE
8
drills_PTH
10
31.374200000000002
20
13.8496
30
0
40
0.40640000000000004
0
CIRCLE
8
drills_PTH
10
38.9942
20
13.8496
30
0
40
0.40640000000000004
0
CIRCLE
8
drills_PTH
10
25.148400000000002
20
15.1944
30
0
40
0.40640000000000004
0
CIRCLE
8
drills_PTH
10
27.6884
20
17.7344
30
0
40
0.40640000000000004
0
CIRCLE
8
drills_PTH
10
25.148400000000002
20
20.2744
30
0
40
0.40640000000000004
0
CIRCLE
8
drills_PTH
10
33.147
20
4.191
30
0
40
0.3
0
CIRCLE
8
drills_PTH
10
28.067
20
4.191
30
0
40
0.3
0
CIRCLE
8
drills_PTH
10
30.607000000000003
20
4.191
30
0
40
0.3
0
ENDSEC
0
EOF